PathFileType	4	(X/Y/Z)	Patient4_TMGait_0pt5_02_left_14.trc.trc
DataRate	CameraRate	NumFrames	NumMarkers	Units	OrigDataRate	OrigDataStartFrame	OrigNumFrames
76.086956521739	76.086956521739	4	33	mm	76.086956521739	124	       141
Frame#	Time	Sacral			L.Shoulder			Chest			R.Shoulder			Neck			R.ASIS			L.ASIS			R.Thigh.Superior			R.Thigh.Lateral			R.Thigh.Inferior			R.Patella			L.Thigh.Superior			L.Thigh.Lateral			L.Thigh.Inferior			L.Patella			L.Shank.Superior			L.Shank.Lateral			L.Shank.Inferior			R.Shank.Superior			R.Shank.Lateral			R.Shank.Inferior			R.Heel			R.Midfoot.Superior			R.Midfoot.Lateral			R.Toe			L.Heel			L.Midfoot.Lateral			L.Midfoot.Superior			L.Toe			L.Elbow			L.Wrist			R.Elbow			R.Wrist			
		X1	Y1	Z1	X2	Y2	Z2	X3	Y3	Z3	X4	Y4	Z4	X5	Y5	Z5	X6	Y6	Z6	X7	Y7	Z7	X8	Y8	Z8	X9	Y9	Z9	X10	Y10	Z10	X11	Y11	Z11	X12	Y12	Z12	X13	Y13	Z13	X14	Y14	Z14	X15	Y15	Z15	X16	Y16	Z16	X17	Y17	Z17	X18	Y18	Z18	X19	Y19	Z19	X20	Y20	Z20	X21	Y21	Z21	X22	Y22	Z22	X23	Y23	Z23	X24	Y24	Z24	X25	Y25	Z25	X26	Y26	Z26	X27	Y27	Z27	X28	Y28	Z28	X29	Y29	Z29	X30	Y30	Z30	X31	Y31	Z31	X32	Y32	Z32	X33	Y33	Z33	

124	19.236571428571	586.532534534908	1006.652550440483	560.323232918199	747.282498505373	1431.280487972508	366.631376064305	870.165947715806	1353.097568884968	508.285904761381	817.632633871432	1425.916888285623	694.123082777853	770.623479776888	1487.740931367341	517.564547223306	818.388919322394	932.391396813777	652.723889905871	779.361817456390	951.533052143017	379.745979754333	814.920118882782	721.314228907605	625.548588155970	714.608383444589	628.128682679576	691.564488947074	770.449199249229	562.303186661707	609.035445060961	752.868565417497	476.939106367562	613.604386493762	850.602011212361	764.150764626577	408.934169732809	791.779513952083	637.161349522303	337.359661465468	893.414352116125	575.074551999250	397.130497972405	917.667829215638	510.412021920079	396.086170198608	901.537212670046	439.024120333968	386.076622292064	835.668155701789	309.225504030836	335.566212542708	922.247980264699	210.818502589228	391.830635179838	713.662486862319	394.248174050673	620.896753155792	632.549979283093	299.123627368035	683.260294626430	660.612720409817	200.876813849944	618.105151405735	511.839027215320	43.224563298408	584.242435489281	681.591257698891	95.986844059919	625.083474146148	592.309797466568	35.493097900230	661.789052233407	800.643380956141	42.555612422604	658.321106198530	834.442435644803	37.816881258241	429.984663310498	909.083348420918	39.212139346360	350.532520905637	983.897957104668	110.475014505307	372.688710732267	1115.569941740244	73.686907414406	347.471033582719	596.972291572994	1106.807128439973	277.167814417529	560.621562975296	848.943816910322	284.170068543970	981.951722212337	1138.462730873871	803.699618053397	1199.363501849331	1234.135963009959	720.611803297952	
125	19.249714285714	587.740630701310	1005.250411907481	557.827711389554	747.179048715710	1429.932197102447	363.731687150588	870.058434958934	1352.674980998427	505.888987972897	816.666995164514	1425.589827780064	691.513894206726	770.015119161043	1486.876824632050	514.545756306702	819.540516371289	931.618659467922	651.406555426313	781.463320861864	950.274065750381	378.434984613732	815.596855362086	720.215629058426	624.809640109205	713.951361346508	627.557474739827	690.283163155029	769.717264814391	561.154729123816	608.289203782982	751.391714387612	475.414204251992	612.630565739409	852.655149564438	762.144962028995	407.883660475109	792.330807160932	635.409500277705	337.081634214501	893.858540407732	573.296529308664	396.976428718621	917.075114503157	507.863159768334	396.435725986586	900.421479519607	436.172460720017	386.397473794753	832.797639422069	307.176495501216	336.141181361359	917.635379325390	207.654789557775	392.864453155724	710.990845936533	393.344360779957	619.929630956595	628.793220884238	299.290138777805	682.651174467448	655.554920411800	200.497702693846	617.693278168265	505.296398630159	43.603130963559	584.395683175260	675.195362992124	95.980137885541	625.140522185798	585.799449374066	35.609428786095	661.847049115157	794.164344588072	42.141450463561	658.402422386769	826.088338165948	37.347009146607	430.766453387555	900.837622136588	37.547428661530	351.300528483741	977.780388965642	106.238255499589	374.487645196527	1108.689243292619	65.666982742481	349.016794102719	598.292377388495	1104.699256872047	274.626341062895	563.103821632643	846.606537537414	282.027231994502	981.255778779217	1137.629086709723	800.848364379311	1198.600807119962	1233.313330543649	717.227063474768	
126	19.262857142857	588.943515533597	1004.069757745789	555.218871060838	747.217353775175	1428.731526569779	360.752941555844	870.053493953044	1352.417362290460	503.461654471107	815.772957556257	1425.479373611063	688.854067579465	769.525878258949	1486.202489245381	511.422756799852	820.678000370685	930.944032995369	649.926097556478	783.561090063680	949.330551994472	377.004304097539	816.348889683743	719.251678146559	623.916058241157	713.450841660321	627.108375692092	688.845409306765	769.248337472749	560.120969301523	607.403346659658	750.214291518803	473.948423367728	611.547041961984	854.757076482124	760.527977762204	406.851442611636	793.275316661338	634.175550227952	336.596682084737	894.591094359332	572.023873887608	396.847308555756	916.689614088065	505.751322172128	396.756247677662	899.609679308944	433.775237639355	386.569922646655	830.415299960116	305.601384399652	336.368083360572	913.354259268267	204.980379832787	393.690788286075	708.579787109676	392.519028125891	618.888854326823	625.211312535072	299.620481840640	681.986822721334	650.642213434068	200.254560480210	617.292364809547	498.790479253630	44.250628383075	584.608038278118	668.910138456628	96.035938402185	625.250635708423	579.343415992888	35.841648274899	661.934744209892	787.745756344409	41.668013198982	658.496804304360	818.190970448935	37.049919720705	431.251384548624	893.088219611124	36.328812429619	351.824148214127	971.828268513081	102.758143599095	376.067286390816	1102.072233667238	58.956068944722	350.448097472238	600.419808423547	1102.392392184872	271.833314511520	566.691255566246	844.023124530081	279.515834480223	979.936018528082	1136.490934396636	798.123967540699	1197.820800337045	1231.190162232952	714.135842318851	
127	19.276000000000	590.102455145442	1003.192356513341	552.523458215331	747.394685406281	1427.753127233761	357.744929888747	870.160680978981	1352.349041796294	501.016391239502	815.024832790009	1425.614773981210	686.164239841748	769.187331715053	1485.766075223530	508.251154757887	821.744855499133	930.422581456853	648.245899183610	785.569620447339	948.764323482710	375.398333297706	817.092497567078	718.486261190692	622.800374496138	713.110239418709	626.823288942989	687.249552396967	769.034646559591	559.258975475339	606.352574019284	749.357069010926	472.590229246880	610.382046311642	856.867881450149	759.466354259988	405.824760729412	794.672580804233	633.534737747386	335.897391583075	895.667497645547	571.343821477195	396.690013248913	916.583863980071	504.151501595392	396.981732719681	899.134669758832	431.893118640622	386.578566240881	828.526514879670	304.571970507257	336.243803063930	909.397399829301	202.862989143236	394.289150877392	706.458494503152	391.806442439158	617.808473275117	621.824789547888	300.155600445839	681.283284220393	645.899794685954	200.191883407406	616.927361629686	492.339260495210	45.250278265423	584.886514027841	662.766813128739	96.175807690579	625.430963982844	572.952173849781	36.232389057633	662.054083948497	781.391758121505	41.140312259734	658.601936663051	810.827584058367	36.916962007452	431.491811359059	885.880272996808	35.544562924878	352.128490166209	966.031319597231	100.124325107135	377.349691917408	1095.732383298489	53.756196143754	351.649608619043	603.335833843621	1099.989736854826	268.822370356038	571.389711914313	841.300696079296	276.632177025944	978.006555901830	1135.075973317421	795.524138201980	1197.051397972316	1227.712503276299	711.361723989140	
